<?xml version="1.0" encoding="utf-8"?>
<!-- Generator: Adobe Illustrator 28.3.0, SVG Export Plug-In . SVG Version: 6.00 Build 0)  -->
<svg version="1.1" id="katman_1" xmlns="http://www.w3.org/2000/svg" xmlns:xlink="http://www.w3.org/1999/xlink" x="0px" y="0px"
	 viewBox="0 0 600 400" style="enable-background:new 0 0 600 400;" xml:space="preserve">
<style type="text/css">
	.st0{fill:#EAEAEA;}
	.st1{fill:none;}
</style>
<g>
	<path class="st0" d="M137.1,196.6c0,17.1-3.3,30.4-9.8,40c-5.6,7.9-13,14.1-22.1,18.5s-18.6,6.6-28.5,6.6c-9.8,0-19.2-2.1-28.2-6.4
		c-9.1-4.3-16.4-10.2-22.1-17.8c-7-9.3-10.5-22.9-10.5-40.9c0,0,3.5-107.5,7.8-107.5h0c13,0,23.6,10.6,23.6,23.6v83.9
		c0,23.9,9.8,35.9,29.3,35.9s29.3-12,29.3-35.9v-83.9c0-13,10.6-23.6,23.6-23.6h0C133.6,89.1,137.1,196.6,137.1,196.6z"/>
	<path class="st0" d="M240.2,259.7h-9.1c-2.3,0-4.2-1.9-4.2-4.2v-5.2h-0.3c-2.5,3.9-6,6.8-10.4,8.9c-4.4,2-33.6,3-38.6,3
		c-11.1,0-20.4-4-27.9-12.1s-11.3-17.7-11.3-28.7c0-8.3,2.1-15.9,6.4-22.6c4.2-6.8,10.2-11.8,17.7-15.2c5-2.2,10-3.3,15.1-3.3
		c8,0,31.8,2.2,42.9,6.6c2.3,0.9,4.9-0.8,4.9-3.3v-22c0-2.3,1.9-4.2,4.2-4.2h10.2c2.3,0,4.2,1.9,4.2,4.2v94.7
		C243.8,258.1,242.2,259.7,240.2,259.7z M220.2,238.1c4.4-4.8,4.4-29,0-33.8c-4.4-4.8-34.3-7.2-40.6-7.2c-6.2,0-11.5,2.4-16,7.1
		c-4.5,4.8-6.7,10.2-6.7,16.4c0,6.6,2.1,12.3,6.4,17.2c4.3,4.9,9.7,7.4,16.3,7.4C185.9,245.3,215.8,242.9,220.2,238.1z"/>
	<path class="st0" d="M334,220.2c0,2-0.2,4.1-0.5,6.3c-0.3,1.7-1.8,3-3.5,3h-51.3c-2.8,0-4.6,3.1-3,5.5c0,0,0,0,0,0.1
		c4.4,6.8,10.7,10.2,18.7,10.2c7.5,0,13.1-2.7,16.8-8.2c0.7-1,1.8-1.6,3-1.6h12.1c2.6,0,4.4,2.8,3.2,5.1c-2.7,5.5-6.8,10.2-12.2,14
		c-7,5-14.6,7.5-22.8,7.5c-11.4,0-21.1-3.9-28.9-11.8c-7.8-7.8-11.7-17.5-11.7-28.9c0-11.5,3.9-21.3,11.6-29.3
		c7.7-8,17.3-12,28.9-12c11.2,0,20.6,3.9,28.2,11.6C330.2,199.6,334,209,334,220.2z M310.6,214.7c2.5,0,4.2-2.5,3.4-4.8
		c-1.2-3.3-3.1-6-5.6-8.2c-3.6-3.1-8.3-4.6-13.9-4.6c-5.5,0-10.2,1.5-14.1,4.6c-2.6,2.1-4.6,4.8-6,8c-1,2.3,0.7,5,3.3,5H310.6z"/>
	<path class="st0" d="M457.4,259.7h-10.7c-2.3,0-4.2-1.9-4.2-4.2V217c0-13.3-4.8-19.9-14.5-19.9c-5.6,0-9.9,2.4-12.7,7.2
		c-1.8,3-2.8,8.3-2.8,15.6v35.6c0,2.3-1.9,4.2-4.2,4.2h-10c-2.3,0-4.2-1.9-4.2-4.2V217c0-5.7-1.2-10.5-3.7-14.3
		c-2.4-3.8-6.3-5.7-11.7-5.7c-3.2,0-5.9,0.7-8,2.1c-2.1,1.4-3.6,3.5-4.5,6.2s-1.5,5.2-1.7,7.5c-0.3,2.3-0.4,5.1-0.4,8.4v34.2
		c0,2.3-1.9,4.2-4.2,4.2h-10c-2.3,0-4.2-1.9-4.2-4.2v-68.4c0-2.3,1.9-4.2,4.2-4.2h8.4c2.3,0,4.2,1.9,4.2,4.2v2.3h0.3
		c3.7-6.1,10.4-9.1,20.1-9.1c8.1,0,14.6,2.9,19.6,8.6c1.4,1.6,3.9,1.7,5.3,0.1c5.5-5.8,12.8-8.7,22.1-8.7c11.1,0,19.5,4,25.3,11.9
		c3.9,5.4,5.8,13,5.8,22.7V256C461,258.1,459.4,259.7,457.4,259.7z"/>
	<path class="st0" d="M489.9,259.7h-10c-2.3,0-4.2-1.9-4.2-4.2V187c0-2.3,1.9-4.2,4.2-4.2h10c2.3,0,4.2,1.9,4.2,4.2v68.4
		C494.1,257.8,492.2,259.7,489.9,259.7z"/>
	<path class="st0" d="M587.8,245.6c0,9.7-2,18.2-6,25.5s-10.2,12.8-18.6,16.3c-5.5,2.4-11.3,3.6-17.3,3.6c-8.7,0-16.5-2.3-23.5-6.8
		c-5.4-3.5-9.6-7.9-12.6-13.4c-1.3-2.4,0.4-5.3,3.1-5.3h13.9c1,0,1.9,0.4,2.5,1.1c4.8,5,10.8,7.5,18,7.5c6.7,0,12.3-2.3,16.5-6.9
		c4.3-4.6,6.6-10.3,7-17.1l-0.3-0.3c-5.8,8.2-14.2,12.3-25.2,12.3c-5.3,0-10.3-1.2-15.2-3.5c-7.6-3.4-13.5-8.6-17.7-15.4
		c-4.2-6.9-6.4-14.5-6.4-22.8c0-10.9,3.8-20.3,11.4-28.3c7.6-8,16.9-12,27.8-12c11,0,19.2,4,24.5,12h0.3v-5.8c0-2,1.6-3.6,3.6-3.6
		h10.7c2,0,3.6,1.6,3.6,3.6L587.8,245.6L587.8,245.6z M569.4,220.5c0-6.2-2.2-11.6-6.6-16.3c-4.4-4.7-9.7-7.1-15.9-7.1
		c-6.4,0-11.7,2.3-16,6.9c-4.3,4.6-6.4,10.2-6.4,16.6c0,6.7,2.2,12.5,6.5,17.4c4.3,4.8,9.8,7.3,16.5,7.3c6.5,0,11.7-2.5,15.9-7.4
		C567.3,232.9,569.4,227.1,569.4,220.5z"/>
</g>
<g>
	<rect x="313.2" y="60" class="st1" width="0.8" height="2.3"/>
</g>
<g>
	<rect x="127.8" y="279.8" class="st1" width="361.5" height="30.6"/>
</g>
<g>
	<path class="st0" d="M209.7,318.6H203c-0.8,0-1.4-0.6-1.4-1.4v0c0-1.1-1.3-1.8-2.2-1.1c-1,0.8-2.2,1.5-3.6,2.1
		c-2.4,1.1-4.8,1.6-7.1,1.6c-5.4,0-9.7-2-13-5.9s-5-8.6-5-14.1c0-5.4,1.7-10,5.2-13.8s7.9-5.7,13.3-5.7c4.1,0,7.7,1.5,10.9,4.4
		c0.7,0.7,1.1,1.2,1.3,1.5h0.1v-3.3c0-0.8,0.6-1.4,1.4-1.4h5.3c0.8,0,1.4,0.6,1.4,1.4v35.7H209.7z M198.3,308.2c2-2.3,3-5,3-8.3
		c0-3.2-1-6-3-8.2s-4.6-3.3-7.8-3.3s-5.8,1.2-7.9,3.5c-2.1,2.3-3.1,5.1-3.1,8.3c0,3.2,1.1,5.8,3.2,8.1c2.1,2.2,4.7,3.3,7.8,3.3
		C193.7,311.6,196.3,310.5,198.3,308.2z"/>
	<path class="st0" d="M253.5,306.5c-1.5,4.1-3.8,7.3-7.1,9.7c-3.3,2.4-7.1,3.6-11.4,3.6c-5.5,0-10.1-1.9-13.9-5.8
		c-4.3-4.4-6.2-9.7-5.6-16.1c0.3-3.8,1.8-7.4,4.3-10.3c4.1-4.9,9.2-7.3,15.3-7.3c4.3,0,8.1,1.2,11.5,3.7c1,0.7,1.9,1.5,2.7,2.4
		c2.7,2.9,0.7,7.5-3.2,7.5h0c-1.4,0-2.7-0.6-3.5-1.7c-1.9-2.5-4.4-3.7-7.5-3.7c-3.2,0-5.8,1.1-7.8,3.4c-2,2.2-3,5-3,8.2s1,6,3.1,8.2
		s4.8,3.4,8,3.4c2.7,0,5.2-1.2,7.1-3.5c0.8-1,2.1-1.6,3.5-1.6l7.5,0V306.5z"/>
	<path class="st0" d="M296.4,318.6h-6.7c-0.8,0-1.4-0.6-1.4-1.4v0c0-1.1-1.3-1.8-2.2-1.1c-1,0.8-2.2,1.5-3.6,2.1
		c-2.4,1.1-4.8,1.6-7.1,1.6c-5.4,0-9.7-2-13-5.9s-5-8.6-5-14.1c0-5.4,1.7-10,5.2-13.8s7.9-5.7,13.3-5.7c4.1,0,7.7,1.5,10.9,4.4
		c0.7,0.7,1.1,1.2,1.3,1.5h0.1v-3.3c0-0.8,0.6-1.4,1.4-1.4h5.3c0.8,0,1.4,0.6,1.4,1.4v35.7H296.4z M285,308.2c2-2.3,3-5,3-8.3
		c0-3.2-1-6-3-8.2s-4.6-3.3-7.8-3.3c-3.2,0-5.8,1.2-7.9,3.5s-3.1,5.1-3.1,8.3c0,3.2,1.1,5.8,3.2,8.1c2.1,2.2,4.7,3.3,7.8,3.3
		C280.4,311.6,283,310.5,285,308.2z"/>
	<path class="st0" d="M340.7,318.6h-7.5c-0.3,0-0.6-0.3-0.6-0.6v-4h-0.1c-1.2,1.9-2.9,3.3-5,4.3c-3.1,1.5-6.6,1.9-10.2,1.2
		c-4.7-0.9-9-3.7-11.8-7.6c-2.4-3.4-3.6-7.3-3.6-11.6c0-4,1-7.6,3.1-10.9c2-3.3,4.9-5.7,8.5-7.3c2.4-1.1,4.8-1.6,7.3-1.6
		c4.1,0,7.5,1.2,10.2,3.5c0.4,0.3,1,0.1,1-0.4v-13.6c0-0.3,0.3-0.6,0.6-0.6h7.7c0.3,0,0.6,0.3,0.6,0.6v48.7H340.7z M329.3,308.2
		c2.1-2.3,3.2-5,3.2-8.1s-1.1-5.8-3.2-8.1c-2.1-2.3-4.7-3.5-7.8-3.5c-3,0-5.5,1.1-7.7,3.4c-2.3,2.5-3.4,5.4-3.2,8.6
		c0.1,2.6,1.1,5.1,2.7,7.1c2.1,2.7,4.9,4,8.2,4C324.6,311.6,327.2,310.5,329.3,308.2z"/>
	<path class="st0" d="M384.2,299.6c0,0.9-0.1,1.9-0.2,3c-0.1,0.9-0.9,1.5-1.8,1.5h-24.5c-1.4,0-2.2,1.5-1.5,2.7l0,0
		c2.1,3.3,5.1,4.9,9,4.9c3.7,0,6.3-1.3,8-3.9c0.3-0.5,0.9-0.8,1.5-0.8c1.3,0,3.8,0,5.6,0c1.3,0,2.2,1.4,1.6,2.6
		c-1.3,2.6-3.3,4.8-5.8,6.6c-3.4,2.4-7,3.6-11,3.6c-5.5,0-10.1-1.9-13.9-5.7c-3.8-3.8-5.6-8.4-5.6-13.9c0-5.6,1.9-10.3,5.6-14.1
		c3.7-3.8,8.3-5.8,13.9-5.8c5.4,0,9.9,1.9,13.6,5.6C382.3,289.6,384.2,294.2,384.2,299.6z M372.8,296.9c1.2,0,2.1-1.2,1.7-2.4
		c-0.6-1.6-1.5-2.8-2.7-3.8c-1.8-1.5-4-2.2-6.7-2.2s-4.9,0.7-6.8,2.2c-1.2,1-2.1,2.2-2.8,3.6c-0.6,1.2,0.3,2.6,1.6,2.6H372.8z"/>
	<path class="st0" d="M445.3,318.6h-5.8c-1.7,0-3.1-1.4-3.1-3.1V298c0-6.4-2.3-9.6-7-9.6c-2.7,0-4.8,1.2-6.1,3.5
		c-0.9,1.5-1.3,4-1.3,7.5v16c0,1.7-1.4,3.1-3.1,3.1h-2.7c-1.7,0-3.1-1.4-3.1-3.1V298c0-2.8-0.6-5-1.8-6.9c-1.2-1.8-3.1-2.7-5.6-2.7
		c-1.6,0-2.8,0.3-3.9,1c-1,0.7-1.7,1.7-2.2,3c-0.4,1.3-0.7,2.5-0.8,3.6c-0.1,1.1-0.2,2.4-0.2,4v15.4c0,1.7-1.4,3.1-3.1,3.1h-2.7
		c-1.7,0-3.1-1.4-3.1-3.1v-30.8c0-1.7,1.4-3.1,3.1-3.1h1.9c1.7,0,3.1,1.4,3.1,3.1l0,0h0.1c1.8-2.9,5-4.4,9.7-4.4
		c3.5,0,6.4,1.1,8.7,3.3c1.2,1.1,3,1.2,4.2,0.1c2.5-2.3,5.8-3.4,9.8-3.4c5.3,0,9.4,1.9,12.2,5.7c1.9,2.6,2.8,6.3,2.8,10.9
		L445.3,318.6L445.3,318.6z"/>
	<path class="st0" d="M485.6,284.6l-19.4,45c-0.3,0.8-1.1,1.3-2,1.3h-4.8c-1.6,0-2.6-1.6-2-3l5.1-11.9c0.2-0.5,0.2-1.1,0-1.7
		l-12-29.7c-0.6-1.4,0.5-3,2-3h5.4c0.9,0,1.7,0.6,2,1.4l5.9,16.6c0.7,1.9,3.4,1.9,4.1,0l6.3-16.7c0.3-0.8,1.1-1.4,2-1.4h5.3
		C485.2,281.6,486.2,283.2,485.6,284.6z"/>
</g>
</svg>
