<?xml version="1.0" encoding="utf-8"?>
<!-- Generator: Adobe Illustrator 28.3.0, SVG Export Plug-In . SVG Version: 6.00 Build 0)  -->
<svg version="1.1" id="katman_1" xmlns="http://www.w3.org/2000/svg" xmlns:xlink="http://www.w3.org/1999/xlink" x="0px" y="0px"
	 viewBox="0 0 500 500" style="enable-background:new 0 0 500 500;" xml:space="preserve">
<style type="text/css">
	.st0{fill:#EAEAEA;}
</style>
<path class="st0" d="M421.4,309.8c0,48.2-9.3,85.8-27.6,112.8c-15.8,22.3-36.7,39.8-62.3,52.2c-25.7,12.4-52.5,18.6-80.4,18.6
	c-27.6,0-54.2-5.9-79.5-18.1c-25.7-12.1-46.3-28.8-62.3-50.2c-19.7-26.2-29.6-64.6-29.6-115.4c0,0,9.9-303.2,22-303.2h0
	c36.8,0,66.6,29.8,66.6,66.6v236.7c0,67.4,27.6,101.3,82.6,101.3s82.6-33.8,82.6-101.3V73.1c0-36.8,29.8-66.6,66.6-66.6h0
	C411.5,6.6,421.4,309.8,421.4,309.8z"/>
<g>
</g>
<g>
</g>
<g>
</g>
<g>
</g>
<g>
</g>
</svg>
