<?xml version="1.0" encoding="utf-8"?>
<!-- Generator: Adobe Illustrator 28.3.0, SVG Export Plug-In . SVG Version: 6.00 Build 0)  -->
<svg version="1.1" id="katman_1" xmlns="http://www.w3.org/2000/svg" xmlns:xlink="http://www.w3.org/1999/xlink" x="0px" y="0px"
	 viewBox="0 0 500 500" style="enable-background:new 0 0 500 500;" xml:space="preserve">
<style type="text/css">
	.st0{fill:#DEDFE0;}
	.st1{fill:#555A5E;}
	.st2{fill:#F4F4F4;}
	.st3{fill:#D2D4DA;}
	.st4{fill:#6E7174;}
	.st5{fill:#FF204E;}
</style>
<g id="OBJECTS">
	<g>
		<path class="st0" d="M-260.2,70.3c0,21.4-8.5,40.9-22.3,55.2c-9.7,10.1-22.1,17.6-36,21.4c-6.8,1.9-13.9,2.9-21.2,2.9
			c-6.4,0-12.6-0.8-18.6-2.2c-15-3.6-28.3-11.4-38.6-22.1c-13.8-14.3-22.3-33.8-22.3-55.2c0-43.9,35.6-79.5,79.5-79.5
			C-295.9-9.2-260.2,26.4-260.2,70.3z"/>
		<g>
			<path class="st1" d="M-312.4,64.5V46.9c0-15.2-12.3-27.6-27.6-27.6l0,0c-15.2,0-27.6,12.3-27.6,27.6v17.6c0,4.9-1.8,9.7-5.1,13.3
				l0,0c-3.3,3.7-5.1,8.4-5.1,13.3V115h75.5V91.2c0-4.9-1.8-9.7-5.1-13.3l0,0C-310.6,74.2-312.4,69.4-312.4,64.5z"/>
			<path class="st2" d="M-282.5,125.5c-5.6,5.8-12,10.7-19.1,14.6c-2.3,1.3-4.8,2.5-7.2,3.5c-0.1,0-0.2,0.1-0.2,0.1
				c-3.5,1.5-7.1,2.7-10.8,3.6c-0.8,0.2-1.6,0.4-2.5,0.6c0,0-0.1,0-0.1,0c-1.3,0.3-2.6,0.6-4,0.8c-4.3,0.7-8.8,1.1-13.3,1.1
				c-4.5,0-9-0.4-13.3-1.1c-1.2-0.2-2.3-0.4-3.5-0.7c-0.8-0.2-1.6-0.4-2.5-0.6c-0.9-0.2-1.7-0.4-2.6-0.7c-2.8-0.8-5.6-1.7-8.2-2.8
				c-0.3-0.1-0.6-0.2-0.9-0.4c-2.4-1-4.8-2.1-7-3.4c-7.2-3.9-13.7-8.9-19.3-14.7l1.4-5.4c2.1-8.1,8.5-14.4,16.6-16.4l1.3-0.3
				l5.9-1.4l2-0.5l4.4-1.1c1.1-0.3,2.2-0.7,3.3-1.2c0,0,0.1-0.1,0.1-0.1c0.2-0.1,0.4-0.2,0.6-0.3h0c0.8-0.4,1.6-1,2.4-1.6
				c0.6-0.5,1.2-1,1.7-1.6c0.2-0.2,0.4-0.5,0.6-0.7c0.4-0.5,0.8-1,1.1-1.5c1-1.5,1.8-3.2,2.3-5.1l1.1-4.1l0.3-1.1l0-0.1l1.4-5.2
				l0.4-1.6h20.8l1.6,6l0.1,0.5l0.1,0.3l0,0.1l0.3,1.1l1.1,4.1c0.5,1.9,1.3,3.6,2.3,5.1c0.4,0.7,0.9,1.3,1.5,1.9
				c0.8,0.9,1.6,1.6,2.6,2.3c0.5,0.4,1.1,0.8,1.7,1.1c0.3,0.2,0.6,0.3,0.9,0.5c1,0.5,2,0.8,3.1,1.1l5.1,1.2l1.6,0.4l5.9,1.4l1.1,0.3
				c8.1,1.9,14.5,8.2,16.6,16.4L-282.5,125.5z"/>
			<path class="st3" d="M-327.6,83.3c-1.8,7.7-6.5,13.3-12.1,13.3c-5.6,0-10.4-5.6-12.1-13.3l1.4-5.2l0.4-1.6h20.7l1.5,6l0.1,0.5
				L-327.6,83.3z"/>
			<path class="st2" d="M-365.9,53.9c-10.3-11.6-3.4,16.7,2.3,13.4C-353.6,61.5-365.9,53.9-365.9,53.9z"/>
			<path class="st2" d="M-313.7,53.9c10.3-11.6,3.4,16.7-2.3,13.4C-326,61.5-313.7,53.9-313.7,53.9z"/>
			<path class="st2" d="M-315.7,45.5c0,0.9-0.1,1.7-0.2,2.6c-0.1,0.6-0.3,2.7-0.6,5.5c-0.1,0.9-0.2,1.9-0.4,2.9
				c-0.3,2.4-0.8,5.1-1.3,7.7c-1.3,6.4-3.1,12.8-5.4,15.2c-1.3,1.3-2.5,2.5-3.6,3.7c-1,0.9-1.9,1.8-2.9,2.6
				c-0.1,0.1-0.1,0.1-0.2,0.2c-0.2,0.1-0.3,0.2-0.5,0.4c-1.2,0.9-2.4,1.6-3.8,2c-1.5,0.5-3.1,0.8-5.1,0.8c-1.8,0-3.4-0.2-4.8-0.7
				c-1.5-0.5-2.8-1.2-4.1-2.1c-0.1-0.1-0.2-0.2-0.3-0.3c0,0-0.1-0.1-0.1-0.1c-1.1-0.8-2.1-1.7-3.1-2.8c-1.2-1.1-2.3-2.4-3.6-3.7
				c-2.3-2.3-4.1-8.7-5.4-15.1h0c0-0.1-0.1-0.3-0.1-0.4l0,0c-0.1-0.7-0.3-1.4-0.4-2.1c-0.1-0.3-0.1-0.7-0.2-1
				c-0.2-1.4-0.5-2.9-0.7-4.2c-0.1-1-0.3-2-0.4-2.9c-0.4-3.4-0.7-5.7-0.7-5.7c-0.1-0.8-0.1-1.6-0.1-2.4c0-0.2,0-0.4,0-0.6
				c0-0.4,0-0.9,0.1-1.3c0.1-1.3,0.3-2.5,0.6-3.8c0-0.1,0.1-0.3,0.1-0.4c0-0.1,0-0.2,0.1-0.2c1.4-5,4.3-9.3,8.2-12.4c0,0,0,0,0.1,0
				c3.8-3,8.5-4.9,13.6-5.2c0.4,0,0.9,0,1.4,0h0c5.8,0,11,2,15.2,5.4c0.6,0.5,1.2,1.1,1.8,1.6c3.1,3.1,5.3,6.9,6.4,11.3
				c0.3,1.2,0.5,2.5,0.6,3.8C-315.8,44.2-315.7,44.9-315.7,45.5z"/>
			<path class="st0" d="M-335.9,69.1c0,1.7-1.7,3-3.8,3c-2.1,0-3.8-1.3-3.8-3c0-0.2,0-0.4,0.1-0.6c0.3,1.4,1.9,2.4,3.7,2.4
				c1.8,0,3.4-1,3.7-2.4C-335.9,68.7-335.9,68.9-335.9,69.1z"/>
			<path class="st1" d="M-315.3,44.9c0,0.9-0.1,1.8-0.2,2.8c-0.1,0.6-0.3,2.8-0.7,5.8c-0.1,0.9-0.7,2-0.8,3
				c-27.7-0.3-31.3-23.5-31.3-23.5c-2.7,20.5-14.4,23.5-14.4,23.5c-0.2-1.1-0.7-2.1-0.8-3c-0.5-3.6-0.7-6-0.7-6
				c-0.1-0.8-0.1-1.7-0.1-2.6c0-0.2,0-0.4,0-0.7c0-0.5,0-0.9,0.1-1.4c0.1-1.4,0.3-2.7,0.6-4c0-0.1,0.1-0.3,0.1-0.4
				c0-0.1,0-0.2,0.1-0.3c1.4-5.3,4.3-9.8,8.3-13.1c0,0,0,0,0.1,0c3.8-3.2,8.6-5.2,13.8-5.5c0.5,0,0.9,0,1.4,0h0
				c5.9,0,11.2,2.1,15.5,5.7c0.7,0.5,1.3,1.1,1.9,1.7c3.1,3.2,5.4,7.4,6.5,12c0.3,1.3,0.5,2.6,0.6,4
				C-315.3,43.5-315.3,44.2-315.3,44.9z"/>
			<g>
				<g>
					<polygon class="st3" points="-371.9,102.1 -371.9,130.3 -377.8,130.3 -377.8,103.5 					"/>
					<polygon class="st3" points="-301.6,103.5 -301.6,130.3 -307.5,130.3 -307.5,102.1 					"/>
				</g>
				<g>
					<path class="st4" d="M-301.6,124.7v15.4c-2.3,1.3-4.8,2.5-7.2,3.5c-0.1,0-0.2,0.1-0.2,0.1c-3.5,1.5-7.1,2.7-10.8,3.6
						c-0.8,0.2-1.6,0.4-2.5,0.6c0,0-0.1,0-0.1,0c-1.3,0.3-2.6,0.6-4,0.8c-4.3,0.7-8.8,1.1-13.3,1.1c-4.5,0-9-0.4-13.3-1.1
						c-1.2-0.2-2.3-0.4-3.5-0.7c-0.8-0.2-1.6-0.4-2.5-0.6c-0.9-0.2-1.7-0.4-2.6-0.7c-2.8-0.8-5.6-1.7-8.2-2.8
						c-0.3-0.1-0.6-0.2-0.9-0.4c-2.4-1-4.8-2.1-7-3.4v-15.6h18.9c6.1,0,11.5,2.8,15,7.2c2.1,2.7,6.1,2.7,8.3,0
						c3.5-4.4,8.9-7.2,15-7.2L-301.6,124.7L-301.6,124.7z"/>
				</g>
			</g>
		</g>
	</g>
	<g>
		<path class="st0" d="M-264.8,468c0,21.5-8.5,40.9-22.3,55.2c-9.7,10.1-22.1,17.6-36,21.5c-6.8,1.9-13.9,2.9-21.2,2.9
			c-6.4,0-12.6-0.8-18.6-2.2c-15-3.6-28.3-11.4-38.6-22.1c-13.8-14.3-22.3-33.8-22.3-55.2c0-43.9,35.6-79.5,79.5-79.5
			C-300.4,388.5-264.8,424.1-264.8,468z"/>
		<g>
			<path class="st2" d="M-287.1,523.2c-0.9,0.9-1.8,1.8-2.7,2.7c-4.9,4.6-10.4,8.6-16.4,11.9c-0.6,0.3-1.3,0.7-1.9,1
				c-1.7,0.9-3.5,1.7-5.3,2.5c-0.1,0-0.2,0.1-0.2,0.1c-3.5,1.5-7.1,2.7-10.8,3.6c-0.8,0.2-1.6,0.4-2.5,0.6c0,0-0.1,0-0.1,0
				c-1.3,0.3-2.6,0.5-4,0.8c-4.3,0.7-8.8,1.1-13.3,1.1c-4.5,0-9-0.4-13.3-1.1c-1.2-0.2-2.3-0.4-3.5-0.7c-0.8-0.2-1.6-0.4-2.5-0.6
				c-0.9-0.2-1.7-0.5-2.6-0.7c-2.8-0.8-5.5-1.7-8.2-2.8c-0.3-0.1-0.6-0.2-0.9-0.3c-1.8-0.8-3.6-1.6-5.3-2.5
				c-0.6-0.3-1.2-0.6-1.8-0.9c-6-3.3-11.6-7.3-16.6-12c-0.9-0.9-1.8-1.8-2.7-2.7l1.4-5.4c0-0.1,0.1-0.2,0.1-0.3
				c2.1-8,8.5-14.1,16.5-16l1.3-0.3l5.9-1.4l2-0.5l4.4-1c1.1-0.3,2.2-0.7,3.3-1.2c0,0,0,0,0,0c0,0,0.1,0,0.1-0.1
				c0.2-0.1,0.4-0.2,0.6-0.3h0c0.8-0.5,1.6-1,2.4-1.6c0.6-0.5,1.2-1,1.7-1.6c0.2-0.2,0.4-0.5,0.6-0.7c0.4-0.5,0.8-1,1.1-1.5
				c1-1.5,1.8-3.2,2.3-5.1l1.1-4.1l0.3-1.1l0-0.1l1.4-5.2l0.4-1.6h20.8l1.5,6l0.1,0.5l0.1,0.3l0,0.1l0.3,1.1l1.1,4.1
				c0.5,1.9,1.3,3.6,2.3,5.1c0.5,0.7,1,1.3,1.5,1.9c0.8,0.9,1.6,1.6,2.6,2.3c0.5,0.4,1.1,0.8,1.7,1.1c0.3,0.2,0.6,0.3,0.8,0.4
				c0,0,0,0,0.1,0c1,0.5,2,0.8,3.1,1.1l5.1,1.2l1.6,0.4l5.9,1.4l1.1,0.3c8,1.9,14.4,8.1,16.5,16c0,0.1,0.1,0.2,0.1,0.3L-287.1,523.2
				z"/>
			<path class="st4" d="M-287.1,523.2c-0.9,0.9-1.8,1.8-2.7,2.7c-4.9,4.6-10.4,8.6-16.4,11.9c-0.6,0.3-1.3,0.7-1.9,1
				c-1.7,0.9-3.5,1.7-5.3,2.5c-0.1,0-0.2,0.1-0.2,0.1c-3.5,1.5-7.1,2.7-10.8,3.6c-0.8,0.2-1.6,0.4-2.5,0.6c0,0-0.1,0-0.1,0
				c-1.3,0.3-2.6,0.5-4,0.8c-4.3,0.7-8.8,1.1-13.3,1.1c-4.5,0-9-0.4-13.3-1.1c-1.2-0.2-2.3-0.4-3.5-0.7c-0.8-0.2-1.6-0.4-2.5-0.6
				c-0.9-0.2-1.7-0.5-2.6-0.7c-2.8-0.8-5.5-1.7-8.2-2.8c-0.3-0.1-0.6-0.2-0.9-0.3c-1.8-0.8-3.6-1.6-5.3-2.5
				c-0.6-0.3-1.2-0.6-1.8-0.9c-6-3.3-11.6-7.3-16.6-12c-0.9-0.9-1.8-1.8-2.7-2.7l1.4-5.4c0-0.1,0.1-0.2,0.1-0.3
				c2.1-8,8.5-14.1,16.5-16l1.3-0.3l5.9-1.4l2-0.5l4.4-1c1.1-0.3,2.2-0.7,3.3-1.2c0,0,0,0,0,0l0,0l22.4,18.4l22.4-18.3
				c0,0,0,0,0.1,0c1,0.5,2,0.8,3.1,1.1l5.1,1.2l1.6,0.4l5.9,1.4l1.1,0.3c8,1.9,14.4,8.1,16.5,16c0,0.1,0.1,0.2,0.1,0.3L-287.1,523.2
				z"/>
			<path class="st1" d="M-317.1,447.3c0,2.7-0.3,5.3-0.9,7.8v0c-3,13.4-13.7,23.3-26.4,23.3c-3.3,0-6.4-0.6-9.3-1.9
				c-10.5-4.3-18-15.8-18-29.2c0-1.4,0.1-2.8,0.2-4.2l0.3-2.1c0.1-0.8,0.3-1.6,0.5-2.4c1.5-5.9,4.5-11.1,8.6-15
				c4.8-4.6,10.9-7.4,17.6-7.4C-329.3,416.2-317.1,430.1-317.1,447.3z"/>
			<g>
				<g>
					<path class="st1" d="M-318.2,438.4l5.2,35c1.2,8.2-6.3,14.9-14.3,12.8l-7.4-2l-2-28.3L-318.2,438.4z"/>
					<g>
						<g>
							<path class="st1" d="M-315.9,489.8c0,2.8-2.3,5.1-5.1,5.1c-2.8,0-5.1-2.3-5.1-5.1c0-2.8,2.3-5.1,5.1-5.1
								C-318.2,484.8-315.9,487-315.9,489.8z"/>
							<circle class="st1" cx="-321" cy="499.2" r="5.1"/>
							<path class="st1" d="M-315.9,508.7c0,2.8-2.3,5.1-5.1,5.1c-2.8,0-5.1-2.3-5.1-5.1c0-2.8,2.3-5.1,5.1-5.1
								C-318.2,503.6-315.9,505.9-315.9,508.7z"/>
						</g>
						<polygon class="st1" points="-321,509.1 -330.6,525.9 -311.3,525.9 						"/>
					</g>
				</g>
				<g>
					<path class="st1" d="M-352.2,455.9l-1.4,20.6l-0.5,7.7l-7.4,2c-0.9,0.2-1.7,0.4-2.5,0.4c-2.1,0.1-4.1-0.4-5.9-1.4
						c-4-2.2-6.6-6.7-5.9-11.8l4.5-30.3l0.3-2.1c0.1-0.8,0.3-1.6,0.5-2.4L-352.2,455.9z"/>
					<g>
						<g>
							<path class="st1" d="M-373,489.8c0,2.8,2.3,5.1,5.1,5.1c2.8,0,5.1-2.3,5.1-5.1c0-2.8-2.3-5.1-5.1-5.1
								C-370.8,484.8-373,487-373,489.8z"/>
							<path class="st1" d="M-373,499.2c0,2.8,2.3,5.1,5.1,5.1c2.8,0,5.1-2.3,5.1-5.1s-2.3-5.1-5.1-5.1
								C-370.8,494.1-373,496.4-373,499.2z"/>
							<path class="st1" d="M-373,508.7c0,2.8,2.3,5.1,5.1,5.1c2.8,0,5.1-2.3,5.1-5.1c0-2.8-2.3-5.1-5.1-5.1
								C-370.8,503.6-373,505.9-373,508.7z"/>
						</g>
						<polygon class="st1" points="-368,509.1 -358.3,525.9 -377.7,525.9 						"/>
						<rect x="-371.2" y="512.6" class="st3" width="6.5" height="2.2"/>
						<rect x="-324.2" y="512.6" class="st3" width="6.5" height="2.2"/>
					</g>
				</g>
			</g>
			<g>
				<path class="st3" d="M-332.2,481c-1.8,7.7-6.5,13.3-12.1,13.3c-5.6,0-10.4-5.6-12.1-13.3l1.4-5.2l0.4-1.6h20.7l1.5,6l0.1,0.5
					L-332.2,481z"/>
				<path class="st2" d="M-370.5,451.5c-10.3-11.6-3.4,16.7,2.3,13.4C-358.1,459.2-370.5,451.5-370.5,451.5z"/>
				<path class="st2" d="M-318.3,451.5c10.3-11.6,3.4,16.7-2.3,13.4C-330.6,459.2-318.3,451.5-318.3,451.5z"/>
				<path class="st2" d="M-320.3,443.2c0,0.9,0,1.7-0.1,2.6c-0.1,0.6-0.3,2.7-0.6,5.5c-0.1,0.9-0.2,1.9-0.4,2.9
					c-0.4,2.4-0.8,5-1.3,7.7c-1.3,6.4-3.1,12.8-5.4,15.2c-1.3,1.3-2.5,2.5-3.6,3.7c-1,1-1.9,1.8-2.9,2.6c-0.1,0-0.1,0.1-0.2,0.2
					c-0.2,0.1-0.3,0.2-0.5,0.4c-1.2,0.9-2.4,1.5-3.8,2c-1.5,0.5-3.1,0.8-5.1,0.8c-1.8,0-3.4-0.2-4.8-0.7c-1.5-0.5-2.8-1.2-4.1-2.1
					c-0.1-0.1-0.2-0.2-0.3-0.3c0,0-0.1-0.1-0.1-0.1c-1-0.8-2.1-1.7-3.1-2.8c-1.1-1.1-2.3-2.4-3.6-3.7c-2.3-2.3-4.1-8.7-5.4-15.1h0
					c0-0.1,0-0.3-0.1-0.4l0,0c-0.1-0.7-0.3-1.4-0.4-2.1c-0.1-0.3-0.1-0.7-0.2-1c-0.2-1.5-0.5-2.9-0.7-4.2c-0.1-1-0.3-2-0.4-2.9
					c-0.5-3.4-0.7-5.7-0.7-5.7c-0.1-0.8-0.1-1.6-0.1-2.4c0-0.2,0-0.4,0-0.6c0-0.5,0-0.9,0.1-1.3c0-0.2,0-0.4,0.1-0.6
					c0.1-1.1,0.3-2.1,0.5-3.1c0-0.1,0.1-0.3,0.1-0.4c0-0.1,0-0.2,0.1-0.2c1.4-5,4.3-9.3,8.2-12.4c0,0,0,0,0,0
					c3.8-3,8.5-4.9,13.6-5.2c0.5,0,0.9,0,1.4,0h0c5.8,0,11,2,15.2,5.4c0.6,0.5,1.2,1.1,1.8,1.6c3.1,3.1,5.3,6.9,6.4,11.3
					c0.2,1,0.4,2.1,0.5,3.1c0,0.2,0,0.4,0.1,0.6C-320.4,441.9-320.3,442.5-320.3,443.2z"/>
				<path class="st0" d="M-340.5,466.8c0,1.7-1.7,3-3.8,3c-2.1,0-3.8-1.3-3.8-3c0-0.2,0-0.4,0.1-0.6c0.3,1.4,1.9,2.4,3.7,2.4
					c1.8,0,3.4-1,3.7-2.4C-340.5,466.4-340.5,466.6-340.5,466.8z"/>
			</g>
			<path class="st1" d="M-319.3,441.1h-50.1c0.1-1.1,0.3-2.2,0.6-3.3c0-0.1,0.1-0.3,0.1-0.4c0-0.1,0-0.2,0.1-0.3
				c1.4-5.2,4.5-9.7,8.6-13c0,0,0,0,0.1,0c4-3.2,8.9-5.1,14.2-5.4c0.5,0,0.9,0,1.4,0h0c6,0,11.6,2.1,15.9,5.6
				c0.7,0.5,1.3,1.1,1.9,1.7c3.2,3.2,5.6,7.3,6.7,11.8C-319.6,438.9-319.4,440-319.3,441.1z"/>
			<g>
				<path class="st1" d="M-321.5,454.2L-321.5,454.2c-3.5,0-6.2-2.8-6.2-6.2v-9.5l7.8,1l1.3,6.5L-321.5,454.2z"/>
				<path class="st1" d="M-367.2,454.2L-367.2,454.2c3.5,0,6.2-2.8,6.2-6.2v-9.5l-7.8,1l-1.3,6.5L-367.2,454.2z"/>
			</g>
		</g>
	</g>
	<g>
		<path class="st0" d="M-263.9,273.3c0,21.4-8.5,40.9-22.3,55.2c-14.5,15-34.8,24.3-57.2,24.3s-42.8-9.3-57.2-24.3
			c-13.8-14.3-22.3-33.8-22.3-55.2c0-43.9,35.6-79.5,79.5-79.5C-299.5,193.8-263.9,229.4-263.9,273.3z"/>
		<g>
			<path class="st3" d="M-331.3,286.3c-1.8,7.7-6.5,13.3-12.1,13.3c-5.6,0-10.4-5.6-12.1-13.3l1.4-5.2l0.4-1.6h20.7l1.5,6l0.1,0.5
				L-331.3,286.3z"/>
			<path class="st4" d="M-307.9,312.4h-72.9v-8.1c0-5.7,4.6-10.3,10.3-10.3h52.3c5.7,0,10.3,4.6,10.3,10.3V312.4z"/>
			<g>
				<path class="st1" d="M-343,224.5h-4.5c-10.7,0-19.7,7.8-21.3,18.3l-0.7,4.5c-1.1,7.2-1.2,14.6-0.3,21.9l0,0
					c1.1,8.3,8.1,14.5,16.5,14.5l0,0L-343,224.5z"/>
				<g>
					<path class="st1" d="M-317.3,262.2h-52.9v-13.7c0-14.3,11.6-25.9,25.9-25.9h1.1c14.3,0,25.9,11.6,25.9,25.9V262.2z"/>
					<path class="st1" d="M-343.5,224.5h4.5c10.7,0,19.7,7.8,21.3,18.3l0.7,4.5c1.1,7.2,1.2,14.6,0.3,21.9l0,0
						c-1.1,8.3-8.1,14.5-16.5,14.5l0,0L-343.5,224.5z"/>
					<path class="st2" d="M-317.4,256.8c10.3-11.6,3.4,16.7-2.3,13.4C-329.7,264.5-317.4,256.8-317.4,256.8z"/>
					<path class="st2" d="M-286.2,328.5c-5.4,5.6-11.5,10.3-18.3,14.2c-10.5,5.9-22.4,9.5-35.1,10.1c-1.3,0.1-2.5,0.1-3.8,0.1
						c-6.4,0-12.6-0.8-18.6-2.2c-8.3-2-16.1-5.3-23.2-9.7c-5.7-3.5-10.9-7.7-15.5-12.5l1.4-5.4c2.1-8.1,8.5-14.4,16.6-16.4l0.9-0.2
						l10-2.4l2.7-0.6c1.1-0.3,2.2-0.7,3.3-1.2c0.9-0.4,1.7-0.9,2.5-1.5c0.8-0.6,1.6-1.3,2.3-2c1.9-2,3.3-4.5,4-7.3l1.1-4.1l0.3-1.1
						l0-0.1l1.4-5.2l0.4-1.6h20.8l1.6,6l0.1,0.5l0.1,0.3l0,0.1l0.3,1.1l1.1,4.1c1,3.8,3.3,7.1,6.4,9.3c1.7,1.2,3.6,2.1,5.8,2.6
						l2.5,0.6l11.1,2.6c8.1,2,14.5,8.2,16.6,16.4L-286.2,328.5z"/>
					<rect x="-363.2" y="320.1" class="st3" width="38.2" height="19.6"/>
					<path class="st3" d="M-331.3,286.3c-1.8,7.7-6.5,13.3-12.1,13.3c-5.6,0-10.4-5.6-12.1-13.3l1.4-5.2l0.4-1.6h20.7l1.5,6l0.1,0.5
						L-331.3,286.3z"/>
					<path class="st2" d="M-369.6,256.8c-10.3-11.6-3.4,16.7,2.3,13.4C-357.2,264.5-369.6,256.8-369.6,256.8z"/>
					<path class="st2" d="M-319.4,248.5c0,0.9-0.1,1.7-0.1,2.6c-0.1,1.2-0.9,8.6-2.4,16c0,0,0,0.1,0,0.1c-1.3,6.4-3.1,12.8-5.4,15.2
						c-2.6,2.6-4.8,5-7.2,6.8c-2.4,1.7-5.1,2.8-8.9,2.8c-3.8,0-6.5-1.1-8.9-2.8c-2.4-1.7-4.5-4.1-7.2-6.8c-2.3-2.3-4.1-8.8-5.4-15.2
						v0c0,0,0,0,0,0c-0.2-0.8-0.3-1.7-0.5-2.5c-0.1-0.3-0.1-0.7-0.2-1c-1.2-6.8-1.7-12.7-1.7-12.7c-0.1-0.8-0.1-1.6-0.1-2.4
						c0-0.2,0-0.4,0-0.6c0.1-1.9,0.3-3.7,0.8-5.5c0-0.1,0-0.2,0.1-0.2c2.7-9.8,11.3-17,21.8-17.6c0.5,0,0.9,0,1.4,0
						c6.6,0,12.6,2.7,17,7C-322.1,235.8-319.4,241.9-319.4,248.5z"/>
					<path class="st0" d="M-339.7,270.1c0,1.7-1.7,3-3.8,3c-2.1,0-3.8-1.3-3.8-3c0-0.2,0-0.4,0.1-0.6c0.3,1.4,1.9,2.4,3.7,2.4
						c1.8,0,3.4-1,3.7-2.4C-339.7,269.7-339.7,269.9-339.7,270.1z"/>
					<path class="st1" d="M-367.5,245.9v12.5l1.2,1.1h1.6c2,0,3.7-1.4,4.2-3.3l2-8.3c0.8-3.1,3.6-5.3,6.8-5.3h16.8
						c3.2,0,6,2.2,6.8,5.3l2,8.3c0.5,1.9,2.2,3.3,4.2,3.3h0.8c0.5,0,0.9-0.3,1-0.8l1-3.9v-8.9c0-11.8-9.6-21.4-21.4-21.4h-5.4
						C-357.9,224.5-367.5,234-367.5,245.9z"/>
				</g>
			</g>
			<path class="st4" d="M-287.6,323.1c-2.1-8.1-8.5-14.4-16.6-16.4l-3.8-0.9l0,0l-14.3-8v7.1c0,4.6-1.7,9.1-4.7,12.6l-16.8,19.6
				l-18.2-21.3c-3-3.5-4.7-8-4.7-12.6v-5.4l-14.3,8l0.2,0.4l-1.2,0.3l-0.9,0.2c-8.2,2-14.5,8.2-16.6,16.4l-1.4,5.4
				c4.6,4.8,9.8,9,15.4,12.5c7.1,4.4,14.9,7.7,23.2,9.7c6,1.4,12.2,2.2,18.6,2.2c1.3,0,2.6,0,3.8-0.1c12.7-0.6,24.6-4.2,35.1-10.1
				c6.8-3.8,13-8.6,18.3-14.2L-287.6,323.1z"/>
			<g>
				<rect x="-366.2" y="317.7" class="st3" width="2.3" height="24"/>
				<rect x="-323" y="317.7" class="st3" width="2.3" height="24"/>
			</g>
		</g>
	</g>
	<g>
		<path class="st5" d="M499.9,249.9c0,67.4-26.7,128.5-70,173.5c-45.5,47.1-109.3,76.4-179.9,76.4c-70.7,0-134.5-29.3-179.9-76.5
			c-43.4-44.9-70-106.1-70-173.5C0.1,111.9,112,0,250,0C388,0,499.9,111.9,499.9,249.9z"/>
		<g>
			<g>
				<path class="st1" d="M198.5,112.5L198.5,112.5c0-11.4,9.2-20.5,20.5-20.5h52.7c32.9,0,59.5,26.6,59.5,59.5v63.9H206L198.5,112.5
					z"/>
				<path class="st1" d="M178.9,222.7h-17.6V137c0-19.2,19.6-32.1,37.2-24.5l0,0C202.5,133.8,178.9,222.7,178.9,222.7z"/>
			</g>
			<g>
				<path class="st3" d="M286.1,290.6c-5.5,24.3-20.5,41.7-38.1,41.7c-17.6,0-32.6-17.5-38.1-41.8l4.3-16.5l1.3-4.9h65.2l4.9,18.9
					l0.4,1.7L286.1,290.6z"/>
				<g>
					<g>
						<path class="st2" d="M330,198.2c32.5-36.4,10.8,52.6-7.2,42.2C291.3,222.1,330,198.2,330,198.2z"/>
						<path class="st2" d="M427.9,423.4c-16.9,17.5-36.3,32.5-57.6,44.5c-32.9,18.5-70.3,29.8-110.3,31.6c-4,0.2-8,0.3-12.1,0.3
							c-20.1,0-39.7-2.4-58.5-6.9c-26.1-6.3-50.7-16.6-72.9-30.4c-17.8-11-34.1-24.2-48.6-39.2l4.3-17C78.9,381,99,361.2,124.6,355
							l2.8-0.7l31.4-7.5l8.6-2c3.6-0.9,7.1-2.1,10.3-3.7c2.7-1.3,5.3-2.9,7.8-4.6c2.6-1.9,5.1-4,7.4-6.4c6-6.3,10.4-14.1,12.7-22.9
							l3.3-12.9l0.9-3.5l0.1-0.3l4.3-16.5l1.3-4.9h65.2l4.9,18.9l0.4,1.7l0.3,0.9l0,0.2l0.9,3.5l3.3,12.9
							c3.1,12,10.3,22.3,20.1,29.3c5.3,3.9,11.5,6.7,18.1,8.3l7.9,1.9l34.9,8.3c25.6,6.1,45.7,25.9,52.2,51.4L427.9,423.4z"/>
						<path class="st3" d="M286.1,290.6c-5.5,24.3-20.5,41.7-38.1,41.7c-17.6,0-32.6-17.5-38.1-41.8l4.3-16.5l1.3-4.9h65.2l4.9,18.9
							l0.4,1.7L286.1,290.6z"/>
						<path class="st2" d="M166,198.2c-32.5-36.4-10.8,52.6,7.2,42.2C204.7,222.1,166,198.2,166,198.2z"/>
						<path class="st2" d="M323.5,171.9c0,2.8-0.2,5.5-0.5,8.2c-0.3,2.5-1.4,12.9-3.3,26.2l0,0c-1.1,7.4-2.5,15.6-4.1,23.9
							c0,0.1,0,0.2-0.1,0.3c-4,20.2-9.6,40.3-17,47.6c-8.3,8.3-15,15.8-22.6,21.3c-7.6,5.5-16.1,8.9-28.1,8.9s-20.5-3.4-28.1-8.9
							c-7.6-5.4-14.3-13-22.6-21.3c-7.4-7.4-13-27.5-17-47.7v0c0,0,0-0.1,0-0.1c-0.5-2.6-1-5.2-1.4-7.8c-0.2-1.1-0.4-2.1-0.6-3.2
							c-0.8-4.5-1.5-9-2.1-13.1c-2.3-15.3-3.4-26.8-3.4-26.8c-0.3-2.5-0.4-5-0.4-7.6c0-0.7,0-1.3,0-2c0.2-5.9,1-11.7,2.5-17.3
							c0.1-0.3,0.1-0.5,0.2-0.8c8.4-30.7,35.6-53.6,68.5-55.4c1.4-0.1,2.9-0.1,4.3-0.1c20.9,0,39.8,8.5,53.4,22.1
							c11.8,11.8,19.7,27.5,21.7,45C323.4,166.3,323.5,169.1,323.5,171.9z"/>
						<path class="st0" d="M259.9,239.8c0,5.2-5.3,9.4-11.9,9.4c-6.5,0-11.8-4.2-11.8-9.4c0-0.6,0.1-1.2,0.3-1.8
							c1,4.3,5.8,7.6,11.6,7.6c5.8,0,10.6-3.3,11.6-7.6C259.8,238.6,259.9,239.2,259.9,239.8z"/>
					</g>
				</g>
			</g>
			<path class="st1" d="M325.8,172.5c0,2.8-0.2,5.6-0.5,8.4c-0.3,2.5-5.6,25.4-5.6,25.4c-108.6-26.4-117.3-72.5-117.3-72.5
				c0.4,44.1-26.3,72.6-26.3,72.6c-2.3-15.8-5.6-26-5.6-26c-0.3-2.6-0.4-5.2-0.4-7.8c0-0.7,0-1.4,0-2c0.2-6.1,1-12.1,2.5-17.8
				c0.1-0.3,0.1-0.5,0.2-0.8c8.6-31.6,36.7-55.2,70.6-57.1c1.5-0.1,2.9-0.1,4.5-0.1c21.5,0,40.9,8.7,55,22.8
				c12.2,12.1,20.3,28.3,22.3,46.4C325.6,166.8,325.8,169.6,325.8,172.5z"/>
			<g>
				<path class="st4" d="M427.9,423.6C382.4,470.7,318.6,500,248,500s-134.5-29.3-179.9-76.5l4.3-16.9c6.5-25.5,26.6-45.3,52.2-51.4
					l34.3-8.2l8.5-2c3.8-0.9,7.5-2.3,11-4c17.4,18.5,42.1,30.1,69.6,30.1s52.2-11.6,69.6-30.1c3.5,1.7,7.1,3.1,11,4l7.4,1.8
					l35.4,8.4c25.6,6.1,45.7,25.9,52.2,51.4L427.9,423.6z"/>
				<path class="st1" d="M336,346.7c-7.7,9.3-35.9,38.7-88.1,40.8c-60.1,2.4-87.5-38.1-89.1-40.6l8.5-2c3.8-0.9,7.5-2.3,11-4
					c17.4,18.5,42.1,30.1,69.6,30.1c27.5,0,52.2-11.6,69.6-30.1c3.5,1.7,7.1,3.1,11,4L336,346.7z"/>
			</g>
		</g>
	</g>
</g>
</svg>
