<?xml version="1.0" encoding="utf-8"?>
<!-- Generator: Adobe Illustrator 28.3.0, SVG Export Plug-In . SVG Version: 6.00 Build 0)  -->
<svg version="1.1" id="katman_1" xmlns="http://www.w3.org/2000/svg" xmlns:xlink="http://www.w3.org/1999/xlink" x="0px" y="0px"
	 viewBox="0 0 500 500" style="enable-background:new 0 0 500 500;" xml:space="preserve">
<style type="text/css">
	.st0{fill:#FF204E;}
	.st1{fill:#555A5E;}
	.st2{fill:#F4F4F4;}
	.st3{fill:#D2D4DA;}
	.st4{fill:#DEDFE0;}
	.st5{fill:#6E7174;}
</style>
<g id="OBJECTS">
	<g>
		<path class="st0" d="M500,250c0,67.4-26.7,128.6-70,173.5C384.5,470.7,320.7,500,250,500s-134.5-29.3-180-76.5
			C26.7,378.6,0,317.4,0,250C0,111.9,111.9,0,250,0C388.1,0,500,111.9,500,250z"/>
		<g>
			<g>
				<path class="st1" d="M338.6,197.3H211.9V96.9l71.8-5.6c29.6-2.3,55,21.1,55,50.9V197.3z"/>
				<path class="st1" d="M211.9,96.9h-10.1c-22.3,0-40.3,18.1-40.3,40.3v60.1l35.2-24.3L211.9,96.9z"/>
			</g>
			<path class="st1" d="M338.6,188.1c0,55.8-39.7,101-88.6,101c-41.1,0-75.7-32-85.7-75.3c-1.9-8.2-2.9-16.8-2.9-25.7
				c0-55.8,39.7-101,88.6-101S338.6,132.3,338.6,188.1z"/>
			<g>
				<path class="st2" d="M430,423.6c-15.7,16.3-33.6,30.4-53.1,41.9c-0.5,0.3-1.1,0.7-1.7,1C338.4,487.8,295.6,500,250,500
					c-44.2,0-85.8-11.5-121.8-31.6c-1.7-0.9-3.3-1.9-4.9-2.8c-19.6-11.6-37.6-25.7-53.2-42l4.3-16.9c6.5-25.5,26.6-45.3,52.2-51.5
					l7.9-1.9l5.3-1.3l25.4-6.1l3.5-0.8l0.8-0.2c3.6-0.8,7.1-2.1,10.4-3.7c5.7-2.7,10.8-6.4,15.1-11c6-6.3,10.5-14.1,12.7-22.9
					l3.3-13l0.9-3.5l0.1-0.3l4.2-16.5l1.3-4.9h65.2l4.8,18.9l0.4,1.7l0.3,1l0.1,0.2l0.9,3.5l3.3,12.9c3.9,15.1,14.3,27.5,28.1,34h0
					c3.2,1.5,6.6,2.7,10.1,3.5l4.2,1l0.2,0.1l28.9,6.9l1.8,0.4l7.7,1.8c25.6,6.1,45.7,25.9,52.2,51.5L430,423.6z"/>
				<path class="st3" d="M288.1,290.7c-5.5,24.3-20.5,41.7-38.1,41.7c-17.6,0-32.6-17.5-38.2-41.8l4.3-16.5l1.3-4.9h65.2l4.9,18.9
					l0.4,1.7L288.1,290.7z"/>
				<path class="st2" d="M177.1,198.2c-32.5-36.4-10.8,52.6,7.2,42.2C215.8,222.2,177.1,198.2,177.1,198.2z"/>
				<path class="st2" d="M322.9,198.2c32.5-36.4,10.8,52.6-7.2,42.2C284.2,222.2,322.9,198.2,322.9,198.2z"/>
				<path class="st2" d="M325.5,172c0,2.8-0.2,5.5-0.4,8.2c-0.2,1.9-0.9,8.7-2.1,18l0,0.1c-3.4,25.2-10.7,68.6-22.3,80.1
					c-8.3,8.3-15,15.8-22.6,21.3c-7.6,5.5-16.1,8.8-28.1,8.8h0c-23.9,0-34-13.5-50.6-30.1c-8.3-8.3-14.4-33-18.5-55.6
					c-0.2-1.1-0.4-2.2-0.5-3.2c-0.6-3.4-1.1-6.7-1.6-9.9c-2.6-16.9-3.9-30.1-3.9-30.1c-0.3-2.5-0.4-5.1-0.4-7.6c0-0.7,0-1.3,0-2
					c0.2-5.9,1-11.7,2.4-17.3c0.1-0.3,0.2-0.5,0.2-0.8c8.4-30.7,35.6-53.6,68.5-55.4c1.4-0.1,2.9-0.1,4.3-0.1h0
					C291.7,96.4,325.5,130.3,325.5,172z"/>
			</g>
			<path class="st4" d="M262.2,246.2c0,5.2-5.3,9.4-11.9,9.4c-6.5,0-11.9-4.2-11.9-9.4c0-0.6,0.1-1.2,0.3-1.8
				c1,4.3,5.8,7.6,11.6,7.6c5.8,0,10.6-3.3,11.6-7.6C262.1,244.9,262.2,245.6,262.2,246.2z"/>
			<path class="st1" d="M327.5,172.5c0,2.8-0.2,5.6-0.5,8.4c-0.2,2-4.1,17.4-4.1,17.4c-76.9-3.4-109.5-40-109.5-40
				c-13.5,39.8-34.7,51.4-34.7,51.4c-2.7-17.3-5.8-29.4-5.8-29.4c-0.3-2.6-0.4-5.2-0.4-7.8c0-0.7,0-1.4,0-2c0.2-6.1,1-12,2.5-17.7
				c0.1-0.3,0.2-0.5,0.2-0.8c8.6-31.5,36.6-55,70.3-56.9c1.5-0.1,2.9-0.1,4.4-0.1h0C292.8,94.9,327.5,129.7,327.5,172.5z"/>
			<g>
				<g>
					<path class="st3" d="M214.3,249.1c-15.2,0-27.5-12.3-27.5-27.5s12.3-27.5,27.5-27.5s27.5,12.3,27.5,27.5
						S229.5,249.1,214.3,249.1z M214.3,197.3c-13.4,0-24.3,10.9-24.3,24.3c0,13.4,10.9,24.3,24.3,24.3c13.4,0,24.3-10.9,24.3-24.3
						C238.7,208.2,227.8,197.3,214.3,197.3z"/>
				</g>
				<g>
					<path class="st3" d="M286.3,249.1c-15.2,0-27.5-12.3-27.5-27.5s12.3-27.5,27.5-27.5c15.2,0,27.5,12.3,27.5,27.5
						S301.4,249.1,286.3,249.1z M286.3,197.3c-13.4,0-24.3,10.9-24.3,24.3c0,13.4,10.9,24.3,24.3,24.3c13.4,0,24.3-10.9,24.3-24.3
						C310.6,208.2,299.7,197.3,286.3,197.3z"/>
				</g>
				<g>
					<path class="st3" d="M261.9,221.7h-3.1c0-4.7-3.8-8.5-8.5-8.5s-8.5,3.8-8.5,8.5h-3.1c0-6.4,5.2-11.6,11.6-11.6
						C256.7,210,261.9,215.2,261.9,221.7z"/>
				</g>
			</g>
			<g>
				<path class="st1" d="M430,423.6c-15.7,16.3-33.6,30.4-53.1,41.9c-0.5,0.3-1.1,0.7-1.7,1c-19.2,11.1-40,19.8-62,25.5
					c-20.2,5.3-41.4,8.1-63.2,8.1c-21.7,0-42.7-2.7-62.7-8c-20.9-5.3-40.7-13.4-59.1-23.7c-1.7-0.9-3.3-1.9-4.9-2.8
					c-19.6-11.6-37.6-25.7-53.2-42l4.3-16.9c6.5-25.5,26.6-45.3,52.2-51.5l7.9-1.9l5.3-1.3l25.4-6.1l3.5-0.8l0.8-0.2
					c3.6-0.8,7.1-2.1,10.4-3.7l0.1,0l26.9,26.9c5.8,5.8,12.6,10.3,20,13.4c7.4,3,15.4,4.7,23.6,4.7c16.3,0,32-6.5,43.5-18l26.7-26.7
					h0c3.2,1.5,6.6,2.7,10.1,3.5l4.2,1l0.2,0.1l28.9,6.9l1.8,0.4l7.7,1.8c25.6,6.1,45.7,25.9,52.2,51.5L430,423.6z"/>
				<path class="st5" d="M313.8,484.1c0,2.7-0.2,5.3-0.5,7.9c-20.2,5.3-41.4,8.1-63.2,8.1c-21.7,0-42.7-2.7-62.7-8
					c-0.3-2.6-0.5-5.3-0.5-8c0-35,28.4-63.5,63.5-63.5S313.8,449,313.8,484.1z"/>
			</g>
		</g>
	</g>
</g>
</svg>
