<?xml version="1.0" encoding="utf-8"?>
<!-- Generator: Adobe Illustrator 28.3.0, SVG Export Plug-In . SVG Version: 6.00 Build 0)  -->
<svg version="1.1" id="katman_1" xmlns="http://www.w3.org/2000/svg" xmlns:xlink="http://www.w3.org/1999/xlink" x="0px" y="0px"
	 viewBox="0 0 500 500" style="enable-background:new 0 0 500 500;" xml:space="preserve">
<style type="text/css">
	.st0{fill:#DEDFE0;}
	.st1{fill:#555A5E;}
	.st2{fill:#F4F4F4;}
	.st3{fill:#D2D4DA;}
	.st4{fill:#6E7174;}
	.st5{fill:#FF204E;}
</style>
<g id="OBJECTS">
	<g>
		<path class="st0" d="M-260.2,73.8c0,21.4-8.5,40.9-22.3,55.2c-9.7,10.1-22.1,17.6-36,21.4c-6.8,1.9-13.9,2.9-21.2,2.9
			c-6.4,0-12.6-0.8-18.6-2.2c-15-3.6-28.3-11.4-38.6-22.1c-13.8-14.3-22.3-33.8-22.3-55.2c0-43.9,35.6-79.5,79.5-79.5
			C-295.9-5.7-260.2,29.9-260.2,73.8z"/>
		<g>
			<path class="st1" d="M-312.4,68V50.4c0-15.2-12.3-27.6-27.6-27.6l0,0c-15.2,0-27.6,12.3-27.6,27.6V68c0,4.9-1.8,9.7-5.1,13.3l0,0
				c-3.3,3.7-5.1,8.4-5.1,13.3v23.9h75.5V94.6c0-4.9-1.8-9.7-5.1-13.3l0,0C-310.6,77.6-312.4,72.9-312.4,68z"/>
			<path class="st2" d="M-282.5,129c-5.6,5.8-12,10.7-19.1,14.6c-2.3,1.3-4.8,2.5-7.2,3.5c-0.1,0-0.2,0.1-0.2,0.1
				c-3.5,1.5-7.1,2.7-10.8,3.6c-0.8,0.2-1.6,0.4-2.5,0.6c0,0-0.1,0-0.1,0c-1.3,0.3-2.6,0.6-4,0.8c-4.3,0.7-8.8,1.1-13.3,1.1
				c-4.5,0-9-0.4-13.3-1.1c-1.2-0.2-2.3-0.4-3.5-0.7c-0.8-0.2-1.6-0.4-2.5-0.6c-0.9-0.2-1.7-0.4-2.6-0.7c-2.8-0.8-5.6-1.7-8.2-2.8
				c-0.3-0.1-0.6-0.2-0.9-0.4c-2.4-1-4.8-2.1-7-3.4c-7.2-3.9-13.7-8.9-19.3-14.7l1.4-5.4c2.1-8.1,8.5-14.4,16.6-16.4l1.3-0.3
				l5.9-1.4l2-0.5l4.4-1.1c1.1-0.3,2.2-0.7,3.3-1.2c0,0,0.1-0.1,0.1-0.1c0.2-0.1,0.4-0.2,0.6-0.3h0c0.8-0.4,1.6-1,2.4-1.6
				c0.6-0.5,1.2-1,1.7-1.6c0.2-0.2,0.4-0.5,0.6-0.7c0.4-0.5,0.8-1,1.1-1.5c1-1.5,1.8-3.2,2.3-5.1l1.1-4.1l0.3-1.1l0-0.1l1.4-5.2
				l0.4-1.6h20.8l1.6,6l0.1,0.5l0.1,0.3l0,0.1l0.3,1.1l1.1,4.1c0.5,1.9,1.3,3.6,2.3,5.1c0.4,0.7,0.9,1.3,1.5,1.9
				c0.8,0.9,1.6,1.6,2.6,2.3c0.5,0.4,1.1,0.8,1.7,1.1c0.3,0.2,0.6,0.3,0.9,0.5c1,0.5,2,0.8,3.1,1.1l5.1,1.2l1.6,0.4l5.9,1.4l1.1,0.3
				c8.1,1.9,14.5,8.2,16.6,16.4L-282.5,129z"/>
			<path class="st3" d="M-327.6,86.7c-1.8,7.7-6.5,13.3-12.1,13.3c-5.6,0-10.4-5.6-12.1-13.3l1.4-5.2l0.4-1.6h20.7l1.5,6l0.1,0.5
				L-327.6,86.7z"/>
			<path class="st2" d="M-365.9,57.3c-10.3-11.6-3.4,16.7,2.3,13.4C-353.6,64.9-365.9,57.3-365.9,57.3z"/>
			<path class="st2" d="M-313.7,57.3c10.3-11.6,3.4,16.7-2.3,13.4C-326,64.9-313.7,57.3-313.7,57.3z"/>
			<path class="st2" d="M-315.7,49c0,0.9-0.1,1.7-0.2,2.6c-0.1,0.6-0.3,2.7-0.6,5.5c-0.1,0.9-0.2,1.9-0.4,2.9
				c-0.3,2.4-0.8,5.1-1.3,7.7c-1.3,6.4-3.1,12.8-5.4,15.2c-1.3,1.3-2.5,2.5-3.6,3.7c-1,0.9-1.9,1.8-2.9,2.6
				c-0.1,0.1-0.1,0.1-0.2,0.2c-0.2,0.1-0.3,0.2-0.5,0.4c-1.2,0.9-2.4,1.6-3.8,2c-1.5,0.5-3.1,0.8-5.1,0.8c-1.8,0-3.4-0.2-4.8-0.7
				c-1.5-0.5-2.8-1.2-4.1-2.1c-0.1-0.1-0.2-0.2-0.3-0.3c0,0-0.1-0.1-0.1-0.1c-1.1-0.8-2.1-1.7-3.1-2.8c-1.2-1.1-2.3-2.4-3.6-3.7
				c-2.3-2.3-4.1-8.7-5.4-15.1h0c0-0.1-0.1-0.3-0.1-0.4l0,0c-0.1-0.7-0.3-1.4-0.4-2.1c-0.1-0.3-0.1-0.7-0.2-1
				c-0.2-1.4-0.5-2.9-0.7-4.2c-0.1-1-0.3-2-0.4-2.9c-0.4-3.4-0.7-5.7-0.7-5.7c-0.1-0.8-0.1-1.6-0.1-2.4c0-0.2,0-0.4,0-0.6
				c0-0.4,0-0.9,0.1-1.3c0.1-1.3,0.3-2.5,0.6-3.8c0-0.1,0.1-0.3,0.1-0.4c0-0.1,0-0.2,0.1-0.2c1.4-5,4.3-9.3,8.2-12.4c0,0,0,0,0.1,0
				c3.8-3,8.5-4.9,13.6-5.2c0.4,0,0.9,0,1.4,0h0c5.8,0,11,2,15.2,5.4c0.6,0.5,1.2,1.1,1.8,1.6c3.1,3.1,5.3,6.9,6.4,11.3
				c0.3,1.2,0.5,2.5,0.6,3.8C-315.8,47.7-315.7,48.3-315.7,49z"/>
			<path class="st0" d="M-335.9,72.6c0,1.7-1.7,3-3.8,3c-2.1,0-3.8-1.3-3.8-3c0-0.2,0-0.4,0.1-0.6c0.3,1.4,1.9,2.4,3.7,2.4
				c1.8,0,3.4-1,3.7-2.4C-335.9,72.2-335.9,72.4-335.9,72.6z"/>
			<path class="st1" d="M-315.3,48.3c0,0.9-0.1,1.8-0.2,2.8c-0.1,0.6-0.3,2.8-0.7,5.8c-0.1,0.9-0.7,2-0.8,3
				c-27.7-0.3-31.3-23.5-31.3-23.5c-2.7,20.5-14.4,23.5-14.4,23.5c-0.2-1.1-0.7-2.1-0.8-3c-0.5-3.6-0.7-6-0.7-6
				c-0.1-0.8-0.1-1.7-0.1-2.6c0-0.2,0-0.4,0-0.7c0-0.5,0-0.9,0.1-1.4c0.1-1.4,0.3-2.7,0.6-4c0-0.1,0.1-0.3,0.1-0.4
				c0-0.1,0-0.2,0.1-0.3c1.4-5.3,4.3-9.8,8.3-13.1c0,0,0,0,0.1,0c3.8-3.2,8.6-5.2,13.8-5.5c0.5,0,0.9,0,1.4,0h0
				c5.9,0,11.2,2.1,15.5,5.7c0.7,0.5,1.3,1.1,1.9,1.7c3.1,3.2,5.4,7.4,6.5,12c0.3,1.3,0.5,2.6,0.6,4
				C-315.3,46.9-315.3,47.6-315.3,48.3z"/>
			<g>
				<g>
					<polygon class="st3" points="-371.9,105.5 -371.9,133.7 -377.8,133.7 -377.8,106.9 					"/>
					<polygon class="st3" points="-301.6,107 -301.6,133.7 -307.5,133.7 -307.5,105.6 					"/>
				</g>
				<g>
					<path class="st4" d="M-301.6,128.1v15.4c-2.3,1.3-4.8,2.5-7.2,3.5c-0.1,0-0.2,0.1-0.2,0.1c-3.5,1.5-7.1,2.7-10.8,3.6
						c-0.8,0.2-1.6,0.4-2.5,0.6c0,0-0.1,0-0.1,0c-1.3,0.3-2.6,0.6-4,0.8c-4.3,0.7-8.8,1.1-13.3,1.1c-4.5,0-9-0.4-13.3-1.1
						c-1.2-0.2-2.3-0.4-3.5-0.7c-0.8-0.2-1.6-0.4-2.5-0.6c-0.9-0.2-1.7-0.4-2.6-0.7c-2.8-0.8-5.6-1.7-8.2-2.8
						c-0.3-0.1-0.6-0.2-0.9-0.4c-2.4-1-4.8-2.1-7-3.4v-15.6h18.9c6.1,0,11.5,2.8,15,7.2c2.1,2.7,6.1,2.7,8.3,0
						c3.5-4.4,8.9-7.2,15-7.2L-301.6,128.1L-301.6,128.1z"/>
				</g>
			</g>
		</g>
	</g>
	<g>
		<path class="st0" d="M-264.8,471.5c0,21.5-8.5,40.9-22.3,55.2c-9.7,10.1-22.1,17.6-36,21.5c-6.8,1.9-13.9,2.9-21.2,2.9
			c-6.4,0-12.6-0.8-18.6-2.2c-15-3.6-28.3-11.4-38.6-22.1c-13.8-14.3-22.3-33.8-22.3-55.2c0-43.9,35.6-79.5,79.5-79.5
			C-300.4,391.9-264.8,427.5-264.8,471.5z"/>
		<g>
			<path class="st2" d="M-287.1,526.7c-0.9,0.9-1.8,1.8-2.7,2.7c-4.9,4.6-10.4,8.6-16.4,11.9c-0.6,0.4-1.3,0.7-1.9,1
				c-1.7,0.9-3.5,1.7-5.3,2.5c-0.1,0-0.2,0.1-0.2,0.1c-3.5,1.5-7.1,2.7-10.8,3.6c-0.8,0.2-1.6,0.4-2.5,0.6c0,0-0.1,0-0.1,0
				c-1.3,0.3-2.6,0.5-4,0.8c-4.3,0.7-8.8,1.1-13.3,1.1c-4.5,0-9-0.4-13.3-1.1c-1.2-0.2-2.3-0.4-3.5-0.7c-0.8-0.2-1.6-0.4-2.5-0.6
				c-0.9-0.2-1.7-0.5-2.6-0.7c-2.8-0.8-5.5-1.7-8.2-2.8c-0.3-0.1-0.6-0.2-0.9-0.4c-1.8-0.8-3.6-1.6-5.3-2.5
				c-0.6-0.3-1.2-0.6-1.8-0.9c-6-3.3-11.6-7.3-16.6-12c-0.9-0.9-1.8-1.8-2.7-2.7l1.4-5.4c0-0.1,0.1-0.2,0.1-0.3
				c2.1-8,8.5-14.1,16.5-16l1.3-0.3l5.9-1.4l2-0.5l4.4-1c1.1-0.3,2.2-0.7,3.3-1.2c0,0,0,0,0,0c0,0,0.1,0,0.1-0.1
				c0.2-0.1,0.4-0.2,0.6-0.3h0c0.8-0.5,1.6-1,2.4-1.6c0.6-0.5,1.2-1,1.7-1.6c0.2-0.2,0.4-0.5,0.6-0.7c0.4-0.5,0.8-1,1.1-1.5
				c1-1.5,1.8-3.2,2.3-5.1l1.1-4.1l0.3-1.1l0-0.1l1.4-5.2l0.4-1.6h20.8l1.5,6l0.1,0.5l0.1,0.3l0,0.1l0.3,1.1l1.1,4.1
				c0.5,1.9,1.3,3.6,2.3,5.1c0.5,0.7,1,1.3,1.5,1.9c0.8,0.9,1.6,1.6,2.6,2.3c0.5,0.4,1.1,0.8,1.7,1.1c0.3,0.2,0.6,0.3,0.8,0.4
				c0,0,0,0,0.1,0c1,0.5,2,0.8,3.1,1.1l5.1,1.2l1.6,0.4l5.9,1.4l1.1,0.3c8,1.9,14.4,8.1,16.5,16c0,0.1,0.1,0.2,0.1,0.3L-287.1,526.7
				z"/>
			<path class="st4" d="M-287.1,526.7c-0.9,0.9-1.8,1.8-2.7,2.7c-4.9,4.6-10.4,8.6-16.4,11.9c-0.6,0.4-1.3,0.7-1.9,1
				c-1.7,0.9-3.5,1.7-5.3,2.5c-0.1,0-0.2,0.1-0.2,0.1c-3.5,1.5-7.1,2.7-10.8,3.6c-0.8,0.2-1.6,0.4-2.5,0.6c0,0-0.1,0-0.1,0
				c-1.3,0.3-2.6,0.5-4,0.8c-4.3,0.7-8.8,1.1-13.3,1.1c-4.5,0-9-0.4-13.3-1.1c-1.2-0.2-2.3-0.4-3.5-0.7c-0.8-0.2-1.6-0.4-2.5-0.6
				c-0.9-0.2-1.7-0.5-2.6-0.7c-2.8-0.8-5.5-1.7-8.2-2.8c-0.3-0.1-0.6-0.2-0.9-0.4c-1.8-0.8-3.6-1.6-5.3-2.5
				c-0.6-0.3-1.2-0.6-1.8-0.9c-6-3.3-11.6-7.3-16.6-12c-0.9-0.9-1.8-1.8-2.7-2.7l1.4-5.4c0-0.1,0.1-0.2,0.1-0.3
				c2.1-8,8.5-14.1,16.5-16l1.3-0.3l5.9-1.4l2-0.5l4.4-1c1.1-0.3,2.2-0.7,3.3-1.2c0,0,0,0,0,0l0,0l22.4,18.4l22.4-18.3
				c0,0,0,0,0.1,0c1,0.5,2,0.8,3.1,1.1l5.1,1.2l1.6,0.4l5.9,1.4l1.1,0.3c8,1.9,14.4,8.1,16.5,16c0,0.1,0.1,0.2,0.1,0.3L-287.1,526.7
				z"/>
			<path class="st1" d="M-317.1,450.7c0,2.7-0.3,5.3-0.9,7.8v0c-3,13.4-13.7,23.3-26.4,23.3c-3.3,0-6.4-0.6-9.3-1.9
				c-10.5-4.3-18-15.8-18-29.2c0-1.4,0.1-2.8,0.2-4.2l0.3-2.1c0.1-0.8,0.3-1.6,0.5-2.4c1.5-5.9,4.5-11.1,8.6-15
				c4.8-4.6,10.9-7.4,17.6-7.4C-329.3,419.6-317.1,433.5-317.1,450.7z"/>
			<g>
				<g>
					<path class="st1" d="M-318.2,441.8l5.2,35c1.2,8.2-6.3,14.9-14.3,12.8l-7.4-2l-2-28.3L-318.2,441.8z"/>
					<g>
						<g>
							<path class="st1" d="M-315.9,493.3c0,2.8-2.3,5.1-5.1,5.1c-2.8,0-5.1-2.3-5.1-5.1c0-2.8,2.3-5.1,5.1-5.1
								C-318.2,488.2-315.9,490.5-315.9,493.3z"/>
							<circle class="st1" cx="-321" cy="502.6" r="5.1"/>
							<path class="st1" d="M-315.9,512.2c0,2.8-2.3,5.1-5.1,5.1c-2.8,0-5.1-2.3-5.1-5.1c0-2.8,2.3-5.1,5.1-5.1
								C-318.2,507.1-315.9,509.4-315.9,512.2z"/>
						</g>
						<polygon class="st1" points="-321,512.6 -330.6,529.3 -311.3,529.3 						"/>
					</g>
				</g>
				<g>
					<path class="st1" d="M-352.2,459.3l-1.4,20.6l-0.5,7.7l-7.4,2c-0.9,0.2-1.7,0.4-2.5,0.4c-2.1,0.1-4.1-0.4-5.9-1.4
						c-4-2.2-6.6-6.7-5.9-11.8l4.5-30.3l0.3-2.1c0.1-0.8,0.3-1.6,0.5-2.4L-352.2,459.3z"/>
					<g>
						<g>
							<path class="st1" d="M-373,493.3c0,2.8,2.3,5.1,5.1,5.1c2.8,0,5.1-2.3,5.1-5.1c0-2.8-2.3-5.1-5.1-5.1
								C-370.8,488.2-373,490.5-373,493.3z"/>
							<path class="st1" d="M-373,502.6c0,2.8,2.3,5.1,5.1,5.1c2.8,0,5.1-2.3,5.1-5.1s-2.3-5.1-5.1-5.1
								C-370.8,497.6-373,499.8-373,502.6z"/>
							<path class="st1" d="M-373,512.2c0,2.8,2.3,5.1,5.1,5.1c2.8,0,5.1-2.3,5.1-5.1c0-2.8-2.3-5.1-5.1-5.1
								C-370.8,507.1-373,509.4-373,512.2z"/>
						</g>
						<polygon class="st1" points="-368,512.6 -358.3,529.3 -377.7,529.3 						"/>
						<rect x="-371.2" y="516.1" class="st3" width="6.5" height="2.2"/>
						<rect x="-324.2" y="516.1" class="st3" width="6.5" height="2.2"/>
					</g>
				</g>
			</g>
			<g>
				<path class="st3" d="M-332.2,484.4c-1.8,7.7-6.5,13.3-12.1,13.3c-5.6,0-10.4-5.6-12.1-13.3l1.4-5.2l0.4-1.6h20.7l1.5,6l0.1,0.5
					L-332.2,484.4z"/>
				<path class="st2" d="M-370.5,455c-10.3-11.6-3.4,16.7,2.3,13.4C-358.1,462.6-370.5,455-370.5,455z"/>
				<path class="st2" d="M-318.3,455c10.3-11.6,3.4,16.7-2.3,13.4C-330.6,462.6-318.3,455-318.3,455z"/>
				<path class="st2" d="M-320.3,446.6c0,0.9,0,1.7-0.1,2.6c-0.1,0.6-0.3,2.7-0.6,5.5c-0.1,0.9-0.2,1.9-0.4,2.9
					c-0.4,2.4-0.8,5-1.3,7.7c-1.3,6.4-3.1,12.8-5.4,15.2c-1.3,1.3-2.5,2.5-3.6,3.7c-1,1-1.9,1.8-2.9,2.6c-0.1,0-0.1,0.1-0.2,0.2
					c-0.2,0.1-0.3,0.2-0.5,0.4c-1.2,0.9-2.4,1.5-3.8,2c-1.5,0.5-3.1,0.8-5.1,0.8c-1.8,0-3.4-0.2-4.8-0.7c-1.5-0.5-2.8-1.2-4.1-2.1
					c-0.1-0.1-0.2-0.2-0.3-0.3c0,0-0.1-0.1-0.1-0.1c-1-0.8-2.1-1.7-3.1-2.8c-1.1-1.1-2.3-2.4-3.6-3.7c-2.3-2.3-4.1-8.7-5.4-15.1h0
					c0-0.1,0-0.3-0.1-0.4l0,0c-0.1-0.7-0.3-1.4-0.4-2.1c-0.1-0.3-0.1-0.7-0.2-1c-0.2-1.5-0.5-2.9-0.7-4.2c-0.1-1-0.3-2-0.4-2.9
					c-0.5-3.4-0.7-5.7-0.7-5.7c-0.1-0.8-0.1-1.6-0.1-2.4c0-0.2,0-0.4,0-0.6c0-0.5,0-0.9,0.1-1.3c0-0.2,0-0.4,0.1-0.6
					c0.1-1.1,0.3-2.1,0.5-3.1c0-0.1,0.1-0.3,0.1-0.4c0-0.1,0-0.2,0.1-0.2c1.4-5,4.3-9.3,8.2-12.4c0,0,0,0,0,0
					c3.8-3,8.5-4.9,13.6-5.2c0.5,0,0.9,0,1.4,0h0c5.8,0,11,2,15.2,5.4c0.6,0.5,1.2,1.1,1.8,1.6c3.1,3.1,5.3,6.9,6.4,11.3
					c0.2,1,0.4,2.1,0.5,3.1c0,0.2,0,0.4,0.1,0.6C-320.4,445.3-320.3,446-320.3,446.6z"/>
				<path class="st0" d="M-340.5,470.3c0,1.7-1.7,3-3.8,3c-2.1,0-3.8-1.3-3.8-3c0-0.2,0-0.4,0.1-0.6c0.3,1.4,1.9,2.4,3.7,2.4
					c1.8,0,3.4-1,3.7-2.4C-340.5,469.9-340.5,470.1-340.5,470.3z"/>
			</g>
			<path class="st1" d="M-319.3,444.6h-50.1c0.1-1.1,0.3-2.2,0.6-3.3c0-0.1,0.1-0.3,0.1-0.4c0-0.1,0-0.2,0.1-0.3
				c1.4-5.2,4.5-9.7,8.6-13c0,0,0,0,0.1,0c4-3.2,8.9-5.1,14.2-5.4c0.5,0,0.9,0,1.4,0h0c6,0,11.6,2.1,15.9,5.6
				c0.7,0.5,1.3,1.1,1.9,1.7c3.2,3.2,5.6,7.3,6.7,11.8C-319.6,442.4-319.4,443.5-319.3,444.6z"/>
			<g>
				<path class="st1" d="M-321.5,457.6L-321.5,457.6c-3.5,0-6.2-2.8-6.2-6.2v-9.5l7.8,1l1.3,6.5L-321.5,457.6z"/>
				<path class="st1" d="M-367.2,457.6L-367.2,457.6c3.5,0,6.2-2.8,6.2-6.2v-9.5l-7.8,1l-1.3,6.5L-367.2,457.6z"/>
			</g>
		</g>
	</g>
	<g>
		<path class="st5" d="M500,250.1c0,67.4-26.7,128.6-70,173.5c-45.5,47.1-109.3,76.5-179.9,76.5s-134.5-29.3-180-76.5
			C26.7,378.7,0,317.5,0,250.1c0-138.1,111.9-250,250-250C388.1,0.1,500,112.1,500,250.1z"/>
		<g>
			<path class="st3" d="M288.1,290.8c-5.5,24.3-20.5,41.7-38.1,41.7c-17.6,0-32.6-17.5-38.2-41.8l4.3-16.5l1.3-4.9h65.2l4.9,18.9
				l0.4,1.7L288.1,290.8z"/>
			<path class="st4" d="M361.8,373.1H132.5v-25.6c0-17.9,14.5-32.4,32.4-32.4h164.4c17.9,0,32.4,14.5,32.4,32.4V373.1z"/>
			<g>
				<path class="st1" d="M251.5,96.6h-14.1c-33.5,0-62,24.4-67.1,57.5l-2.2,14.1c-3.5,22.8-3.8,45.9-0.9,68.8l0,0
					c3.4,26.1,25.6,45.6,51.9,45.6l0,0L251.5,96.6z"/>
				<g>
					<path class="st1" d="M332.4,215.2H166.2v-43.1c0-44.9,36.4-81.4,81.4-81.4h3.4c44.9,0,81.4,36.4,81.4,81.4V215.2z"/>
					<path class="st1" d="M250,96.6h14.1c33.5,0,62,24.4,67.1,57.5l2.2,14.1c3.5,22.8,3.8,45.9,0.9,68.8l0,0
						c-3.4,26.1-25.6,45.6-51.9,45.6l0,0L250,96.6z"/>
					<path class="st2" d="M332.1,198.4c32.5-36.4,10.8,52.6-7.2,42.2C293.3,222.3,332.1,198.4,332.1,198.4z"/>
					<path class="st2" d="M429.9,423.7c-16.9,17.5-36.3,32.5-57.6,44.5c-32.9,18.5-70.3,29.8-110.3,31.7c-4,0.2-8,0.3-12.1,0.3
						c-20.1,0-39.7-2.4-58.5-6.9c-26.2-6.3-50.7-16.6-72.9-30.4c-17.8-11-34.1-24.2-48.6-39.2l4.3-17c6.5-25.5,26.6-45.3,52.2-51.4
						l2.8-0.7l31.4-7.5l8.6-2c3.6-0.9,7.1-2.1,10.3-3.7c2.7-1.3,5.3-2.9,7.8-4.6c2.6-1.9,5.1-4,7.4-6.4c6-6.3,10.4-14.1,12.7-22.9
						l3.3-13l0.9-3.5l0.1-0.3l4.3-16.5l1.3-4.9h65.2l4.9,18.9l0.4,1.7l0.3,0.9l0,0.2l0.9,3.5l3.3,12.9c3.1,12,10.3,22.3,20.1,29.3
						c5.3,3.9,11.5,6.7,18.1,8.3l7.9,1.9l34.9,8.3c25.6,6.1,45.7,25.9,52.2,51.4L429.9,423.7z"/>
					<rect x="188" y="397.3" class="st3" width="120" height="61.5"/>
					<path class="st3" d="M288.1,290.8c-5.5,24.3-20.5,41.7-38.1,41.7c-17.6,0-32.6-17.5-38.2-41.8l4.3-16.5l1.3-4.9h65.2l4.9,18.9
						l0.4,1.7L288.1,290.8z"/>
					<path class="st2" d="M168,198.4c-32.5-36.4-10.8,52.6,7.2,42.2C206.7,222.3,168,198.4,168,198.4z"/>
					<path class="st2" d="M325.6,172.1c0,2.8-0.2,5.5-0.5,8.2c-0.4,3.8-2.8,27-7.4,50.2c0,0.1,0,0.2-0.1,0.3
						c-4,20.2-9.6,40.3-17,47.7c-8.3,8.3-15,15.8-22.6,21.3c-7.6,5.5-16.1,8.9-28.1,8.9c-11.9,0-20.5-3.4-28.1-8.9
						c-7.6-5.4-14.3-13-22.6-21.3c-7.4-7.4-13-27.5-17-47.7v0c0,0,0-0.1,0-0.1c-0.5-2.6-1-5.2-1.4-7.8c-0.2-1.1-0.4-2.1-0.6-3.2
						c-3.7-21.3-5.5-40-5.5-40c-0.3-2.5-0.4-5-0.4-7.6c0-0.7,0-1.3,0-2c0.2-5.9,1-11.7,2.5-17.3c0.1-0.3,0.1-0.5,0.2-0.8
						c8.4-30.7,35.6-53.6,68.5-55.4c1.4-0.1,2.9-0.1,4.3-0.1c20.9,0,39.8,8.5,53.4,22.1C317.1,132.4,325.6,151.2,325.6,172.1z"/>
					<path class="st0" d="M261.9,240c0,5.2-5.3,9.4-11.9,9.4c-6.5,0-11.9-4.2-11.9-9.4c0-0.6,0.1-1.2,0.3-1.8
						c1,4.3,5.8,7.6,11.6,7.6c5.8,0,10.6-3.3,11.6-7.6C261.8,238.8,261.9,239.4,261.9,240z"/>
					<path class="st1" d="M174.5,163.8v39.3l3.8,3.4h4.9c6.2,0,11.6-4.2,13.1-10.3l6.3-26.1c2.4-9.8,11.2-16.8,21.3-16.8h52.7
						c10.1,0,18.9,6.9,21.3,16.8l6.3,26.1c1.5,6,6.9,10.3,13.1,10.3h2.4c1.5,0,2.8-1,3.2-2.5l3.1-12.2v-28.1
						c0-37.1-30.1-67.3-67.3-67.3h-16.9C204.6,96.6,174.5,126.7,174.5,163.8z"/>
				</g>
			</g>
			<path class="st4" d="M425.6,406.7c-6.5-25.5-26.6-45.3-52.2-51.4l-11.9-2.8l0,0l-45-25.2v22.2c0,14.6-5.2,28.6-14.6,39.7
				l-52.7,61.7l-57.2-67c-9.5-11.1-14.6-25.2-14.6-39.7v-16.9l-45,25.2l0.5,1.3l-3.7,0.9l-2.8,0.7c-25.6,6.1-45.7,25.9-52.2,51.4
				l-4.3,17c14.5,15,30.7,28.2,48.6,39.2c22.2,13.8,46.7,24.1,72.9,30.4c18.8,4.5,38.3,6.9,58.5,6.9c4.1,0,8.1-0.1,12.1-0.3
				c40-1.9,77.4-13.1,110.3-31.7c21.3-12,40.7-27,57.6-44.5L425.6,406.7z"/>
			<g>
				<rect x="178.5" y="389.7" class="st3" width="7.1" height="75.3"/>
				<rect x="314.4" y="389.7" class="st3" width="7.1" height="75.3"/>
			</g>
		</g>
	</g>
	<g>
		<path class="st5" d="M87-262.3c0,67.4-26.7,128.5-70,173.5C-28.5-41.7-92.2-12.4-162.9-12.4c-70.7,0-134.5-29.3-179.9-76.5
			c-43.4-44.9-70-106.1-70-173.5c0-138,111.9-249.9,249.9-249.9C-24.9-512.2,87-400.3,87-262.3z"/>
		<g>
			<g>
				<path class="st1" d="M-214.4-399.7L-214.4-399.7c0-11.4,9.2-20.5,20.5-20.5h52.7c32.9,0,59.5,26.6,59.5,59.5v63.9h-125.3
					L-214.4-399.7z"/>
				<path class="st1" d="M-234-289.5h-17.6v-85.7c0-19.2,19.6-32.1,37.2-24.5l0,0C-210.4-378.4-234-289.5-234-289.5z"/>
			</g>
			<g>
				<path class="st3" d="M-126.8-221.6c-5.5,24.3-20.5,41.7-38.1,41.7c-17.6,0-32.6-17.5-38.1-41.8l4.3-16.5l1.3-4.9h65.2l4.9,18.9
					l0.4,1.7L-126.8-221.6z"/>
				<g>
					<g>
						<path class="st2" d="M-82.9-314c32.5-36.4,10.8,52.6-7.2,42.2C-121.6-290.1-82.9-314-82.9-314z"/>
						<path class="st2" d="M15-88.8C-1.9-71.3-21.3-56.3-42.6-44.3c-32.9,18.5-70.3,29.8-110.3,31.6c-4,0.2-8,0.3-12.1,0.3
							c-20.1,0-39.7-2.4-58.5-6.9c-26.1-6.3-50.7-16.6-72.9-30.4c-17.8-11-34.1-24.2-48.6-39.2l4.3-17c6.5-25.5,26.6-45.3,52.2-51.4
							l2.8-0.7l31.4-7.5l8.6-2c3.6-0.9,7.1-2.1,10.3-3.7c2.7-1.3,5.3-2.9,7.8-4.6c2.6-1.9,5.1-4,7.4-6.4c6-6.3,10.4-14.1,12.7-22.9
							l3.3-12.9l0.9-3.5l0.1-0.3l4.3-16.5l1.3-4.9h65.2l4.9,18.9l0.4,1.7l0.3,0.9l0,0.2l0.9,3.5l3.3,12.9
							c3.1,12,10.3,22.3,20.1,29.3c5.3,3.9,11.5,6.7,18.1,8.3l7.9,1.9l34.9,8.3c25.6,6.1,45.7,25.9,52.2,51.4L15-88.8z"/>
						<path class="st3" d="M-126.8-221.6c-5.5,24.3-20.5,41.7-38.1,41.7c-17.6,0-32.6-17.5-38.1-41.8l4.3-16.5l1.3-4.9h65.2
							l4.9,18.9l0.4,1.7L-126.8-221.6z"/>
						<path class="st2" d="M-246.9-314c-32.5-36.4-10.8,52.6,7.2,42.2C-208.2-290.1-246.9-314-246.9-314z"/>
						<path class="st2" d="M-89.4-340.3c0,2.8-0.2,5.5-0.5,8.2c-0.3,2.5-1.4,12.9-3.3,26.2l0,0c-1.1,7.4-2.5,15.6-4.1,23.9
							c0,0.1,0,0.2-0.1,0.3c-4,20.2-9.6,40.3-17,47.6c-8.3,8.3-15,15.8-22.6,21.3c-7.6,5.5-16.1,8.9-28.1,8.9s-20.5-3.4-28.1-8.9
							c-7.6-5.4-14.3-13-22.6-21.3c-7.4-7.4-13-27.5-17-47.7v0c0,0,0-0.1,0-0.1c-0.5-2.6-1-5.2-1.4-7.8c-0.2-1.1-0.4-2.1-0.6-3.2
							c-0.8-4.5-1.5-9-2.1-13.1c-2.3-15.3-3.4-26.8-3.4-26.8c-0.3-2.5-0.4-5-0.4-7.6c0-0.7,0-1.3,0-2c0.2-5.9,1-11.7,2.5-17.3
							c0.1-0.3,0.1-0.5,0.2-0.8c8.4-30.7,35.6-53.6,68.5-55.4c1.4-0.1,2.9-0.1,4.3-0.1c20.9,0,39.8,8.5,53.4,22.1
							c11.8,11.8,19.7,27.5,21.7,45C-89.5-345.9-89.4-343.1-89.4-340.3z"/>
						<path class="st0" d="M-153.1-272.4c0,5.2-5.3,9.4-11.9,9.4c-6.5,0-11.8-4.2-11.8-9.4c0-0.6,0.1-1.2,0.3-1.8
							c1,4.3,5.8,7.6,11.6,7.6c5.8,0,10.6-3.3,11.6-7.6C-153.1-273.6-153.1-273-153.1-272.4z"/>
					</g>
				</g>
			</g>
			<path class="st1" d="M-87.1-339.7c0,2.8-0.2,5.6-0.5,8.4c-0.3,2.5-5.6,25.4-5.6,25.4c-108.6-26.4-117.3-72.5-117.3-72.5
				c0.4,44.1-26.3,72.6-26.3,72.6c-2.3-15.8-5.6-26-5.6-26c-0.3-2.6-0.4-5.2-0.4-7.8c0-0.7,0-1.4,0-2c0.2-6.1,1-12.1,2.5-17.8
				c0.1-0.3,0.1-0.5,0.2-0.8c8.6-31.6,36.7-55.2,70.6-57.1c1.5-0.1,2.9-0.1,4.5-0.1c21.5,0,40.9,8.7,55,22.8
				c12.2,12.1,20.3,28.3,22.3,46.4C-87.3-345.5-87.1-342.6-87.1-339.7z"/>
			<g>
				<path class="st4" d="M15-88.6C-30.5-41.5-94.3-12.2-164.9-12.2s-134.5-29.3-179.9-76.5l4.3-16.9c6.5-25.5,26.6-45.3,52.2-51.4
					l34.3-8.2l8.5-2c3.8-0.9,7.5-2.3,11-4c17.4,18.5,42.1,30.1,69.6,30.1s52.2-11.6,69.6-30.1c3.5,1.7,7.1,3.1,11,4l7.4,1.8
					l35.4,8.4c25.6,6.1,45.7,25.9,52.2,51.4L15-88.6z"/>
				<path class="st1" d="M-76.9-165.5c-7.7,9.3-35.9,38.7-88.1,40.8c-60.1,2.4-87.5-38.1-89.1-40.6l8.5-2c3.8-0.9,7.5-2.3,11-4
					c17.4,18.5,42.1,30.1,69.6,30.1s52.2-11.6,69.6-30.1c3.5,1.7,7.1,3.1,11,4L-76.9-165.5z"/>
			</g>
		</g>
	</g>
</g>
</svg>
